<svg width="60" height="60" viewBox="0 0 60 60" fill="none" xmlns="http://www.w3.org/2000/svg">
<g id="simple-icons:createreactapp">
<path id="Vector" d="M54.8 27.1148C54.8 24.0573 51.2 21.3448 45.6625 19.6898C46.995 14.0648 46.4125 9.58984 43.7625 8.07734C43.1131 7.71665 42.3803 7.53301 41.6375 7.54484C39.165 7.54484 36.04 9.26984 32.885 12.2598C29.73 9.29484 26.6125 7.57734 24.145 7.57734C23.3904 7.5602 22.6451 7.74674 21.9875 8.11734C19.3525 9.63484 18.805 14.0823 20.12 19.6798C14.6125 21.3273 11.03 24.0173 11.02 27.0623C11.0125 30.1073 14.625 32.8323 20.16 34.4823C18.8275 40.1098 19.405 44.5823 22.06 46.0948C22.7075 46.4573 23.44 46.6398 24.18 46.6273C26.6575 46.6273 29.7825 44.9023 32.9375 41.9123C36.0875 44.8773 39.205 46.5948 41.6775 46.5948C42.4318 46.6092 43.1764 46.4228 43.835 46.0548C46.47 44.5373 47.0125 40.0898 45.7025 34.5148C51.2125 32.8448 54.795 30.1548 54.8 27.1148ZM34.9175 13.2623C38.5525 10.0098 40.825 9.65734 41.6325 9.65734C42.0075 9.64514 42.3788 9.73409 42.7075 9.91484C43.9775 10.6398 44.4825 13.1898 44.08 16.5723C43.9762 17.4361 43.8276 18.2939 43.635 19.1423C41.7961 18.7153 39.9313 18.4088 38.0525 18.2248C36.9334 16.6541 35.7115 15.1592 34.395 13.7498C34.5575 13.5873 34.735 13.4223 34.92 13.2623H34.9175ZM23.915 29.6323C24.26 30.2973 24.63 30.9623 25.01 31.6323C25.3925 32.3023 25.7925 32.9823 26.235 33.6523C25.0674 33.4848 23.9072 33.2688 22.7575 33.0048C23.0675 31.8773 23.4625 30.7698 23.915 29.6323ZM22.685 21.1823C23.81 20.9198 24.985 20.7023 26.205 20.5323C25.7625 21.1898 25.38 21.8648 24.98 22.5698C24.58 23.2748 24.23 23.9023 23.8875 24.5748C23.4486 23.4573 23.0484 22.325 22.6875 21.1798L22.685 21.1823ZM25 27.0998C25.55 25.9373 26.155 24.7748 26.815 23.6098C27.4825 22.4473 28.195 21.3148 28.9325 20.2348C31.5755 20.0335 34.23 20.0369 36.8725 20.2448C37.61 21.3148 38.315 22.4598 38.9825 23.5948C39.6475 24.7248 40.26 25.9098 40.81 27.0698C39.6834 29.4579 38.3702 31.7534 36.8825 33.9348C34.2396 34.1388 31.5848 34.1354 28.9425 33.9248C28.1942 32.8366 27.4894 31.7191 26.83 30.5748C26.1824 29.4397 25.5779 28.2805 25.0175 27.0998H25ZM39.585 20.5423C40.7925 20.7123 41.96 20.9298 43.065 21.1873C42.7375 22.2823 42.345 23.4073 41.8925 24.5373C41.5425 23.8723 41.18 23.2073 40.7925 22.5373C40.4041 21.8675 40.0074 21.2024 39.6025 20.5423H39.585ZM40.81 31.6048C41.1925 30.9323 41.555 30.2623 41.9025 29.5923C42.345 30.7473 42.79 31.8848 43.1025 32.9923C41.9825 33.2548 40.805 33.4673 39.585 33.6373C40.015 32.9798 40.4275 32.3023 40.8275 31.6048H40.81ZM32.8975 15.2548C33.6975 16.1098 34.48 17.0323 35.2475 18.0223C34.4746 17.989 33.7011 17.9715 32.9275 17.9698C32.1425 17.9698 31.3375 17.9698 30.5625 18.0223C31.2959 17.0636 32.0751 16.1384 32.8975 15.2548ZM23.05 9.93484C23.3865 9.75637 23.7645 9.67093 24.145 9.68734C24.9452 9.72084 25.7299 9.91914 26.45 10.2698C28.0761 11.0363 29.5731 12.0509 30.8875 13.2773L31.4075 13.7523C30.1041 15.1515 28.894 16.6347 27.785 18.1923C25.8956 18.3747 24.02 18.6796 22.17 19.1048C21.9752 18.2755 21.8275 17.4359 21.7275 16.5898C21.265 13.2398 21.7975 10.6823 23.045 9.95234L23.05 9.93484ZM20.7 32.4398C19.8665 32.1854 19.0463 31.8892 18.2425 31.5523C15.0925 30.2198 13.1375 28.5123 13.1375 27.0523C13.1375 25.5898 15.1 23.8898 18.2475 22.5823C19.0376 22.2547 19.8436 21.9668 20.6625 21.7198C21.2177 23.5585 21.8942 25.3582 22.6875 27.1073C21.911 28.84 21.248 30.6212 20.7025 32.4398H20.7ZM30.91 40.9148C27.275 44.1698 25.0025 44.5148 24.19 44.5148C23.8152 44.5283 23.4438 44.4402 23.115 44.2598C21.8475 43.5348 21.34 40.9848 21.745 37.6023C21.8476 36.7394 21.9953 35.8824 22.1875 35.0348C24.0275 35.4598 25.8925 35.7648 27.7725 35.9498C28.89 37.5223 30.1125 39.0173 31.43 40.4248L30.91 40.9173V40.9148ZM32.9375 38.9148C32.1375 38.0648 31.3525 37.1398 30.5825 36.1498C31.345 36.1848 32.1225 36.2023 32.9075 36.2023C33.6925 36.2023 34.4975 36.2023 35.2725 36.1523C34.505 37.1398 33.7225 38.0623 32.935 38.9148H32.9375ZM42.7825 44.2398C42.446 44.4244 42.0661 44.5151 41.6825 44.5023C40.875 44.5023 38.575 44.1473 34.9525 40.9073L34.435 40.4323C35.7366 39.0339 36.945 37.5516 38.0525 35.9948C39.9431 35.814 41.8197 35.5083 43.67 35.0798C43.865 35.9423 44.02 36.7848 44.115 37.5973C44.555 40.9423 44.0425 43.4998 42.7775 44.2223L42.7825 44.2423V44.2398ZM47.5775 31.6173C46.8175 31.9298 46.015 32.2173 45.1625 32.4748C44.6049 30.6364 43.9268 28.8366 43.1325 27.0873C43.9125 25.3573 44.58 23.5773 45.1275 21.7623C45.96 22.0123 46.7825 22.3123 47.585 22.6473C50.7325 23.9798 52.69 25.6873 52.685 27.1473C52.68 28.6098 50.7225 30.2898 47.5725 31.5998L47.5775 31.6173ZM32.895 31.1673C33.7 31.1673 34.4875 30.9273 35.1575 30.4823C35.828 30.0352 36.3509 29.3992 36.66 28.6548C36.9696 27.9104 37.0514 27.0908 36.895 26.2998C36.7387 25.5093 36.3516 24.7829 35.7825 24.2123C35.2133 23.6419 34.4877 23.253 33.6975 23.0948C32.907 22.9369 32.0875 23.0169 31.3425 23.3248C30.5976 23.6328 29.9607 24.1549 29.5125 24.8248C29.0639 25.4942 28.8237 26.2815 28.8225 27.0873C28.8214 27.6225 28.9259 28.1526 29.13 28.6473C29.4381 29.3923 29.9603 30.0292 30.6305 30.4773C31.3007 30.9255 32.0888 31.1647 32.895 31.1648V31.1673ZM5.82 2.52734V51.6398H60V2.52984L5.82 2.52734ZM57.8825 49.5273H7.94V4.64734H57.8825V49.5273ZM20.1575 34.4798C18.825 40.1073 19.4 44.5798 22.055 46.0923C22.7025 46.4548 23.435 46.6373 24.1775 46.6248C26.6525 46.6248 29.7775 44.8998 32.935 41.9098C36.085 44.8748 39.2 46.5923 41.6725 46.5923C42.4269 46.607 43.1715 46.4207 43.83 46.0523C46.4675 44.5348 47.0075 40.0873 45.7 34.5123C51.2075 32.8623 54.79 30.1698 54.7925 27.1298C54.7975 24.0898 51.1925 21.3598 45.66 19.7048C46.99 14.0798 46.41 9.60484 43.76 8.09234C43.1106 7.73165 42.3778 7.54801 41.635 7.55984C39.16 7.55984 36.035 9.28484 32.88 12.2748C29.725 9.30984 26.61 7.59234 24.14 7.59234C23.3862 7.57565 22.6418 7.76218 21.985 8.13234C19.3475 9.65484 18.8 14.0998 20.115 19.6998C14.6075 21.3473 11.025 24.0373 11.015 27.0823C11.0075 30.1273 14.625 32.8223 20.16 34.4823L20.155 34.4848L20.1575 34.4798ZM30.9 40.9123C27.265 44.1648 24.9925 44.5123 24.18 44.5123C23.805 44.525 23.4335 44.4361 23.105 44.2548C21.8375 43.5298 21.33 40.9798 21.735 37.5973C21.8384 36.7343 21.9869 35.8773 22.18 35.0298C24.0194 35.4537 25.884 35.7594 27.7625 35.9448C28.88 37.5173 30.1025 39.0123 31.42 40.4198L30.9 40.9123ZM41.905 24.5373C41.551 23.8638 41.1843 23.197 40.805 22.5373C40.4175 21.8648 40.005 21.2048 39.595 20.5423C40.8025 20.7123 41.97 20.9298 43.075 21.1873C42.75 22.2823 42.36 23.4073 41.9075 24.5373H41.905ZM43.1125 32.9698C41.9925 33.2323 40.8175 33.4448 39.595 33.6148C40.4283 32.3032 41.2016 30.9543 41.9125 29.5723C42.38 30.7473 42.7825 31.8748 43.1025 32.9923L43.1125 32.9723V32.9698ZM40.8 27.0448C39.6729 29.4339 38.3588 31.7303 36.87 33.9123C34.2271 34.1168 31.5723 34.1135 28.93 33.9023C27.4386 31.7349 26.1212 29.4528 24.99 27.0773C25.54 25.9148 26.145 24.7523 26.805 23.5873C27.47 22.4248 28.185 21.2923 28.9225 20.2123C31.5655 20.0111 34.22 20.0144 36.8625 20.2223C37.5975 21.2923 38.305 22.4373 38.97 23.5723C39.635 24.7023 40.2525 25.9098 40.8025 27.0673L40.8 27.0448ZM26.235 33.6498C25.0674 33.4823 23.9072 33.2688 22.7575 33.0048C23.0825 31.9123 23.48 30.7823 23.9325 29.6523C24.2775 30.3173 24.6475 30.9823 25.0275 31.6523C25.41 32.3223 25.7925 32.9798 26.235 33.6523V33.6498ZM25 22.5573C24.615 23.2223 24.25 23.8873 23.9075 24.5623C23.4556 23.4517 23.0486 22.3233 22.6875 21.1798C23.8125 20.9198 24.985 20.7023 26.205 20.5323C25.7925 21.1898 25.4 21.8673 25 22.5573ZM32.9375 38.9123C32.1375 38.0623 31.3525 37.1373 30.58 36.1473C31.3425 36.1823 32.12 36.1998 32.905 36.1998C33.69 36.1998 34.495 36.1998 35.27 36.1498C34.5336 37.1046 33.7554 38.0264 32.9375 38.9123ZM42.78 44.2373C42.4435 44.4219 42.0636 44.5126 41.68 44.4998C40.8725 44.4998 38.5725 44.1448 34.9525 40.9048L34.4325 40.4298C35.734 39.0313 36.9425 37.549 38.05 35.9923C39.9406 35.8115 41.8172 35.5058 43.6675 35.0773C43.865 35.9373 44.0175 36.7823 44.1125 37.5948C44.5575 40.9398 44.045 43.4973 42.78 44.2198V44.2373ZM45.125 21.7523C45.9575 22.0073 46.78 22.3023 47.5825 22.6398C50.7325 23.9723 52.6875 25.6798 52.6825 27.1398C52.68 28.6023 50.725 30.3198 47.575 31.6298C46.815 31.9398 46.0125 32.2298 45.16 32.4848C44.6033 30.6464 43.926 28.8467 43.1325 27.0973C43.9125 25.3548 44.5775 23.5648 45.125 21.7348V21.7523ZM34.915 13.2798C38.55 10.0273 40.8225 9.67484 41.6325 9.67484C42.0075 9.66264 42.3788 9.75159 42.7075 9.93234C43.975 10.6573 44.4825 13.2073 44.0775 16.5898C43.9736 17.4536 43.8251 18.3114 43.6325 19.1598C41.7936 18.7328 39.9288 18.4263 38.05 18.2423C36.9309 16.6716 35.7091 15.1766 34.3925 13.7673C34.56 13.5873 34.7375 13.4223 34.92 13.2623L34.915 13.2798ZM32.8975 15.2598C33.6975 16.1098 34.48 17.0323 35.2475 18.0223C34.4746 17.989 33.7011 17.9715 32.9275 17.9698C32.1425 17.9698 31.3375 17.9723 30.5625 18.0223C31.2959 17.0645 32.0752 16.1426 32.8975 15.2598ZM23.05 9.93484C23.3865 9.75637 23.7645 9.67093 24.145 9.68734C24.9452 9.72084 25.7299 9.91914 26.45 10.2698C28.0761 11.0363 29.5731 12.0509 30.8875 13.2773L31.4075 13.7523C30.1041 15.1515 28.894 16.6347 27.785 18.1923C25.8956 18.3747 24.02 18.6771 22.17 19.1023C21.9752 18.273 21.8275 17.4359 21.7275 16.5898C21.265 13.2398 21.7975 10.6823 23.045 9.95234L23.05 9.93484ZM18.2475 22.5773C19.0376 22.2496 19.8436 21.9618 20.6625 21.7148C21.2177 23.5535 21.8942 25.3532 22.6875 27.1023C21.908 28.8323 21.2416 30.611 20.6925 32.4273C19.8582 32.1737 19.0372 31.8783 18.2325 31.5423C15.0825 30.2098 13.13 28.5023 13.13 27.0423C13.13 25.5823 15.1 23.8848 18.2475 22.5773ZM32.895 23.0198C32.0889 23.0191 31.3006 23.2575 30.63 23.7048C29.9598 24.1514 29.437 24.7864 29.1275 25.5298C28.8179 26.2743 28.7361 27.0939 28.8925 27.8848C29.0888 28.8771 29.6471 29.7608 30.4588 30.3642C31.2706 30.9677 32.2777 31.2477 33.2844 31.1498C34.2911 31.0519 35.2254 30.5831 35.9057 29.8346C36.5859 29.0861 36.9635 28.1113 36.965 27.0998C36.9695 26.5627 36.8675 26.0299 36.665 25.5323C36.4617 25.0343 36.1617 24.5814 35.7825 24.1998C35.4038 23.8187 34.9535 23.5163 34.4575 23.3098C33.9623 23.1037 33.4313 22.9975 32.895 22.9973V23.0198ZM32.895 23.0198C32.0889 23.0191 31.3006 23.2575 30.63 23.7048C29.9598 24.1514 29.437 24.7864 29.1275 25.5298C28.8179 26.2743 28.7361 27.0939 28.8925 27.8848C29.0888 28.8771 29.6471 29.7608 30.4588 30.3642C31.2706 30.9677 32.2777 31.2477 33.2844 31.1498C34.2911 31.0519 35.2254 30.5831 35.9057 29.8346C36.5859 29.0861 36.9635 28.1113 36.965 27.0998C36.9695 26.5627 36.8675 26.0299 36.665 25.5323C36.4617 25.0343 36.1617 24.5814 35.7825 24.1998C35.4038 23.8187 34.9535 23.5163 34.4575 23.3098C33.9623 23.1037 33.4313 22.9975 32.895 22.9973V23.0198ZM32.895 23.0198C32.0889 23.0191 31.3006 23.2575 30.63 23.7048C29.9598 24.1514 29.437 24.7864 29.1275 25.5298C28.8179 26.2743 28.7361 27.0939 28.8925 27.8848C29.0888 28.8771 29.6471 29.7608 30.4588 30.3642C31.2706 30.9677 32.2777 31.2477 33.2844 31.1498C34.2911 31.0519 35.2254 30.5831 35.9057 29.8346C36.5859 29.0861 36.9635 28.1113 36.965 27.0998C36.9695 26.5627 36.8675 26.0299 36.665 25.5323C36.4617 25.0343 36.1617 24.5814 35.7825 24.1998C35.4038 23.8187 34.9535 23.5163 34.4575 23.3098C33.9623 23.1037 33.4313 22.9975 32.895 22.9973V23.0198ZM54.7975 27.1198C54.7975 24.0623 51.1975 21.3523 45.6625 19.6948C46.995 14.0698 46.4125 9.59734 43.7625 8.08484C43.1131 7.72415 42.3803 7.54051 41.6375 7.55234C39.165 7.55234 36.04 9.27734 32.885 12.2648C29.73 9.29984 26.6125 7.58234 24.145 7.58234C23.3901 7.56596 22.6448 7.75337 21.9875 8.12484C19.3525 9.64234 18.805 14.0898 20.12 19.6873C14.6125 21.3323 11.03 24.0223 11.02 27.0673C11.0125 30.1123 14.625 32.8373 20.16 34.4898C18.8275 40.1148 19.405 44.5873 22.06 46.0998C22.7075 46.4623 23.44 46.6473 24.18 46.6323C26.6575 46.6323 29.7825 44.9073 32.9375 41.9198C36.0875 44.8848 39.205 46.6023 41.6775 46.6023C42.4325 46.6148 43.1775 46.4273 43.835 46.0598C46.47 44.5423 47.0125 40.0948 45.7025 34.5198C51.2125 32.8423 54.7925 30.1523 54.7975 27.1123V27.1223V27.1198ZM34.9175 13.2623C38.5525 10.0098 40.825 9.65734 41.6325 9.65734C42.0075 9.64514 42.3788 9.73409 42.7075 9.91484C43.9775 10.6398 44.4825 13.1873 44.08 16.5698C43.9762 17.4336 43.8276 18.2939 43.635 19.1423C41.7961 18.7153 39.9313 18.4088 38.0525 18.2248C36.9334 16.6541 35.7115 15.1592 34.395 13.7498C34.5575 13.5873 34.735 13.4223 34.92 13.2623H34.9175ZM23.915 29.6323C24.26 30.2973 24.63 30.9623 25.01 31.6323C25.3925 32.3023 25.7925 32.9798 26.235 33.6498C25.0674 33.4823 23.9072 33.2688 22.7575 33.0048C23.0675 31.8773 23.4625 30.7648 23.915 29.6273V29.6323ZM22.685 21.1823C23.81 20.9198 24.985 20.6998 26.205 20.5298C25.7625 21.1873 25.38 21.8648 24.98 22.5698C24.58 23.2748 24.23 23.9023 23.8875 24.5748C23.4486 23.4573 23.0484 22.3225 22.6875 21.1773L22.685 21.1823ZM25 27.0998C25.55 25.9373 26.155 24.7748 26.815 23.6098C27.4825 22.4473 28.195 21.3148 28.9325 20.2348C31.5755 20.0335 34.23 20.0369 36.8725 20.2448C37.61 21.3148 38.315 22.4598 38.9825 23.5948C39.6475 24.7248 40.26 25.9098 40.81 27.0698C39.6834 29.4579 38.3702 31.7534 36.8825 33.9348C34.2396 34.1388 31.5848 34.1354 28.9425 33.9248C28.1942 32.8366 27.4894 31.7191 26.83 30.5748C26.1824 29.4397 25.5779 28.2805 25.0175 27.0998H25ZM39.585 20.5423C40.7925 20.7123 41.96 20.9298 43.065 21.1873C42.7375 22.2823 42.345 23.4073 41.8925 24.5373C41.5425 23.8723 41.18 23.2073 40.7925 22.5373C40.4041 21.8675 40.0074 21.2024 39.6025 20.5423H39.585ZM40.81 31.6048C41.1925 30.9323 41.555 30.2623 41.9025 29.5923C42.345 30.7473 42.79 31.8848 43.1025 32.9923C41.9825 33.2548 40.805 33.4673 39.585 33.6373C40.015 32.9798 40.4275 32.3023 40.8275 31.6048H40.81ZM32.8975 15.2548C33.6975 16.1098 34.48 17.0323 35.2475 18.0223C34.4746 17.989 33.7011 17.9715 32.9275 17.9698C32.1425 17.9698 31.3375 17.9698 30.5625 18.0223C31.2959 17.0645 32.0752 16.1426 32.8975 15.2598V15.2548ZM23.05 9.93484C23.3865 9.75637 23.7645 9.67093 24.145 9.68734C24.9452 9.72084 25.7299 9.91914 26.45 10.2698C28.0761 11.0363 29.5731 12.0509 30.8875 13.2773L31.4075 13.7523C30.1041 15.1515 28.894 16.6347 27.785 18.1923C25.8956 18.3747 24.02 18.6796 22.17 19.1048C21.9752 18.2755 21.8275 17.4359 21.7275 16.5898C21.265 13.2398 21.7975 10.6823 23.045 9.95234L23.05 9.93484ZM20.7 32.4398C19.8665 32.1854 19.0463 31.8892 18.2425 31.5523C15.0925 30.2198 13.1375 28.5123 13.1375 27.0523C13.1375 25.5898 15.1 23.8898 18.2475 22.5823C19.0376 22.2547 19.8436 21.9668 20.6625 21.7198C21.2177 23.5585 21.8942 25.3582 22.6875 27.1073C21.911 28.84 21.248 30.6212 20.7025 32.4398H20.7ZM30.91 40.9148C27.275 44.1698 25.0025 44.5148 24.19 44.5148C23.8152 44.5283 23.4438 44.4402 23.115 44.2598C21.8475 43.5348 21.34 40.9848 21.745 37.6023C21.8476 36.7394 21.9953 35.8824 22.1875 35.0348C24.0275 35.4598 25.8925 35.7648 27.7725 35.9498C28.89 37.5223 30.1125 39.0173 31.43 40.4248L30.91 40.9173V40.9148ZM32.9375 38.9148C32.1375 38.0648 31.3525 37.1398 30.5825 36.1498C31.345 36.1848 32.1225 36.2023 32.9075 36.2023C33.6925 36.2023 34.4975 36.2023 35.2725 36.1523C34.505 37.1398 33.7225 38.0623 32.935 38.9148H32.9375ZM42.7825 44.2398C42.446 44.4244 42.0661 44.5151 41.6825 44.5023C40.875 44.5023 38.575 44.1473 34.9525 40.9073L34.435 40.4323C35.7366 39.0339 36.945 37.5516 38.0525 35.9948C39.9431 35.814 41.8197 35.5083 43.67 35.0798C43.865 35.9423 44.02 36.7848 44.115 37.5973C44.555 40.9423 44.0425 43.4998 42.7775 44.2223L42.7825 44.2423V44.2398ZM47.5775 31.6173C46.8175 31.9298 46.015 32.2173 45.1625 32.4748C44.6049 30.6364 43.9268 28.8366 43.1325 27.0873C43.9125 25.3573 44.58 23.5773 45.1275 21.7623C45.96 22.0123 46.7825 22.3123 47.585 22.6473C50.7325 23.9798 52.69 25.6873 52.685 27.1473C52.68 28.6098 50.7225 30.2898 47.5725 31.5998L47.5775 31.6173ZM32.895 31.1673C33.7 31.1673 34.4875 30.9273 35.1575 30.4823C35.828 30.0352 36.3509 29.3992 36.66 28.6548C36.9696 27.9104 37.0514 27.0908 36.895 26.2998C36.7387 25.5093 36.3516 24.7829 35.7825 24.2123C35.2133 23.6419 34.4877 23.253 33.6975 23.0948C32.907 22.9369 32.0875 23.0169 31.3425 23.3248C30.5976 23.6328 29.9607 24.1549 29.5125 24.8248C29.0639 25.4942 28.8237 26.2815 28.8225 27.0873C28.8214 27.6225 28.9259 28.1526 29.13 28.6473C29.4381 29.3923 29.9603 30.0292 30.6305 30.4773C31.3007 30.9255 32.0888 31.1647 32.895 31.1648V31.1673ZM2.125 55.3498V6.22484L0 8.35234V57.4698H54.1725L56.295 55.3523H2.125V55.3498Z" fill="#F24E1E"/>
</g>
</svg>
