<svg width="60" height="60" viewBox="0 0 60 60" fill="none" xmlns="http://www.w3.org/2000/svg">
<g id="fluent:phone-laptop-16-regular">
<path id="Vector" d="M11.25 15C11.25 13.5082 11.8426 12.0774 12.8975 11.0225C13.9524 9.96763 15.3832 9.375 16.875 9.375H46.875C48.3668 9.375 49.7976 9.96763 50.8525 11.0225C51.9074 12.0774 52.5 13.5082 52.5 15V33.75C52.5 35.2418 51.9074 36.6726 50.8525 37.7275C49.7976 38.7824 48.3668 39.375 46.875 39.375H31.875V35.625H46.875C47.3723 35.625 47.8492 35.4275 48.2008 35.0758C48.5525 34.7242 48.75 34.2473 48.75 33.75V15C48.75 14.5027 48.5525 14.0258 48.2008 13.6742C47.8492 13.3225 47.3723 13.125 46.875 13.125H16.875C16.3777 13.125 15.9008 13.3225 15.5492 13.6742C15.1975 14.0258 15 14.5027 15 15H13.125C12.4763 15 11.85 15.0825 11.25 15.2363V15ZM54.375 46.875H31.875V43.125H54.375C54.8723 43.125 55.3492 43.3225 55.7008 43.6742C56.0525 44.0258 56.25 44.5027 56.25 45C56.25 45.4973 56.0525 45.9742 55.7008 46.3258C55.3492 46.6775 54.8723 46.875 54.375 46.875ZM16.875 46.875C17.3723 46.875 17.8492 46.6775 18.2008 46.3258C18.5525 45.9742 18.75 45.4973 18.75 45C18.75 44.5027 18.5525 44.0258 18.2008 43.6742C17.8492 43.3225 17.3723 43.125 16.875 43.125C16.3777 43.125 15.9008 43.3225 15.5492 43.6742C15.1975 44.0258 15 44.5027 15 45C15 45.4973 15.1975 45.9742 15.5492 46.3258C15.9008 46.6775 16.3777 46.875 16.875 46.875ZM5.625 24.375C5.625 22.8832 6.21763 21.4524 7.27252 20.3975C8.32742 19.3426 9.75816 18.75 11.25 18.75H22.5C23.9918 18.75 25.4226 19.3426 26.4775 20.3975C27.5324 21.4524 28.125 22.8832 28.125 24.375V46.875C28.125 48.3668 27.5324 49.7976 26.4775 50.8525C25.4226 51.9074 23.9918 52.5 22.5 52.5H11.25C9.75816 52.5 8.32742 51.9074 7.27252 50.8525C6.21763 49.7976 5.625 48.3668 5.625 46.875V24.375ZM11.25 22.5C10.7527 22.5 10.2758 22.6975 9.92418 23.0492C9.57254 23.4008 9.375 23.8777 9.375 24.375V46.875C9.375 47.3723 9.57254 47.8492 9.92418 48.2008C10.2758 48.5525 10.7527 48.75 11.25 48.75H22.5C22.9973 48.75 23.4742 48.5525 23.8258 48.2008C24.1775 47.8492 24.375 47.3723 24.375 46.875V24.375C24.375 23.8777 24.1775 23.4008 23.8258 23.0492C23.4742 22.6975 22.9973 22.5 22.5 22.5H11.25Z" fill="#F24E1E"/>
</g>
</svg>
